<svg width="19" height="19" viewBox="0 0 19 19" fill="none" xmlns="http://www.w3.org/2000/svg">
<path fill-rule="evenodd" clip-rule="evenodd" d="M7.42704 9.50004C7.42704 10.643 8.35553 11.5715 9.49853 11.5715C10.6415 11.5715 11.57 10.643 11.57 9.50004V9.48283C11.3489 9.70722 11.0454 9.84531 10.7069 9.84531C10.0404 9.84531 9.49853 9.30328 9.49853 8.63695C9.49853 8.15716 9.78137 7.73927 10.1856 7.54589C9.97159 7.47001 9.74029 7.42859 9.49853 7.42859C8.35553 7.42855 7.42704 8.35719 7.42704 9.50004ZM17.3219 8.32265C16.0373 6.68979 12.9096 3.97606 9.50188 3.97606C6.09092 3.97606 2.95972 6.68983 1.67513 8.32265C1.38519 8.69558 1.22638 9.09952 1.21597 9.50004C1.22642 9.9006 1.38519 10.3045 1.67513 10.6774C2.95976 12.3106 6.0875 15.0239 9.49853 15.0239C12.9096 15.0239 16.0373 12.3106 17.3219 10.6774C17.6152 10.3045 17.774 9.9006 17.7845 9.50004C17.774 9.09952 17.6152 8.69558 17.3219 8.32265ZM9.49853 12.9525C7.59295 12.9525 6.04604 11.4057 6.04604 9.50004C6.04604 7.5943 7.59295 6.04755 9.49853 6.04755C11.4041 6.04755 12.951 7.5943 12.951 9.50004C12.9509 11.4057 11.404 12.9525 9.49853 12.9525Z" fill="#757575"/>
</svg>
