<svg width="36" height="36" viewBox="0 0 36 36" fill="none" xmlns="http://www.w3.org/2000/svg">
<path d="M18 1.5C8.8875 1.5 1.5 8.88713 1.5 18C1.5 27.1129 8.8875 34.5 18 34.5C27.1125 34.5 34.5 27.1129 34.5 18C34.5 8.88713 27.1125 1.5 18 1.5ZM18 31.5C10.5443 31.5 4.5 25.4557 4.5 18C4.5 10.5443 10.5443 4.5 18 4.5C25.4557 4.5 31.5 10.5443 31.5 18C31.5 25.4557 25.4557 31.5 18 31.5Z" fill="#FF0000"/>
<path d="M20.1217 18L23.3036 14.8181C23.8894 14.2324 23.8894 13.2825 23.3036 12.6971C22.7179 12.1114 21.7676 12.1114 21.1819 12.6971L18.0004 15.8786L14.8185 12.6971C14.2327 12.1114 13.2829 12.1114 12.6971 12.6971C12.1114 13.2829 12.1114 14.2331 12.6971 14.8181L15.879 18L12.6971 21.1819C12.1114 21.7676 12.1114 22.7175 12.6971 23.3029C13.2829 23.8886 14.2327 23.8886 14.8185 23.3029L18.0004 20.1214L21.1819 23.3029C21.7676 23.8886 22.7179 23.8886 23.3036 23.3029C23.8894 22.7171 23.8894 21.7669 23.3036 21.1819L20.1217 18Z" fill="#FF0000"/>
</svg>
