<svg width="32" height="32" viewBox="0 0 32 32" fill="none" xmlns="http://www.w3.org/2000/svg">
<path d="M15.8582 19.4145C17.2297 19.4145 18.3415 18.3027 18.3415 16.9312C18.3415 15.5598 17.2297 14.448 15.8582 14.448C14.4868 14.448 13.375 15.5598 13.375 16.9312C13.375 18.3027 14.4868 19.4145 15.8582 19.4145Z" fill="#3AADE1"/>
<path d="M18.963 10.8362H12.7549C11.8519 10.8362 11.0617 11.1184 10.5538 11.6263C10.0459 12.1342 9.76367 12.9244 9.76367 13.8274V20.0355C9.76367 20.9385 10.0459 21.7286 10.6102 22.293C11.1746 22.8009 11.9083 23.0831 12.8113 23.0831H18.963C19.866 23.0831 20.6561 22.8009 21.164 22.293C21.7284 21.785 22.0106 20.9949 22.0106 20.0919V13.8838C22.0106 12.9808 21.7284 12.2471 21.2205 11.6827C20.6561 11.1184 19.9224 10.8362 18.963 10.8362ZM15.8589 20.7692C13.7143 20.7692 12.0212 19.0196 12.0212 16.9314C12.0212 14.7868 13.7707 13.0937 15.8589 13.0937C17.9471 13.0937 19.7531 14.7868 19.7531 16.9314C19.7531 19.076 18.0035 20.7692 15.8589 20.7692ZM19.866 13.8274C19.358 13.8274 18.963 13.4323 18.963 12.9244C18.963 12.4164 19.358 12.0214 19.866 12.0214C20.3739 12.0214 20.769 12.4164 20.769 12.9244C20.769 13.4323 20.3739 13.8274 19.866 13.8274Z" fill="#3AADE1"/>
<path d="M15.9715 2.93481C8.296 2.93481 2.08789 9.14293 2.08789 16.8184C2.08789 24.4939 8.296 30.702 15.9715 30.702C23.647 30.702 29.8551 24.4939 29.8551 16.8184C29.9115 9.14293 23.647 2.93481 15.9715 2.93481ZM23.3648 20.0918C23.3648 21.3898 22.9133 22.5186 22.1232 23.3087C21.333 24.0988 20.2043 24.4939 18.9627 24.4939H12.811C11.5694 24.4939 10.4406 24.0988 9.6505 23.3087C8.80394 22.5186 8.40888 21.3898 8.40888 20.0918V13.8837C8.40888 11.2875 10.1584 9.48155 12.811 9.48155H19.0191C20.3172 9.48155 21.3895 9.93305 22.1796 10.7232C22.9697 11.5133 23.3648 12.5856 23.3648 13.8837V20.0918Z" fill="#3AADE1"/>
</svg>
