<svg width="32" height="32" viewBox="0 0 32 32" fill="none" xmlns="http://www.w3.org/2000/svg">
<path d="M16.001 2.91089C8.32455 2.91089 2.10156 9.13501 2.10156 16.8103C2.10156 24.4867 8.32455 30.7086 16.001 30.7086C23.6774 30.7086 29.8993 24.4867 29.8993 16.8103C29.8993 9.13501 23.6769 2.91089 16.001 2.91089ZM23.0023 14.0079C23.0097 14.158 23.0125 14.3087 23.0125 14.4611C23.0125 19.0901 19.4893 24.4269 13.0467 24.4269C11.0689 24.4269 9.2271 23.8472 7.67714 22.8538C7.95146 22.886 8.22973 22.9024 8.51251 22.9024C10.1539 22.9024 11.6644 22.3424 12.8627 21.4032C11.3302 21.3744 10.0371 20.3612 9.59117 18.9699C9.80453 19.0116 10.0241 19.0325 10.2499 19.0325C10.5693 19.0325 10.8787 18.9908 11.1727 18.91C9.56972 18.5883 8.36237 17.1716 8.36237 15.476C8.36237 15.4607 8.36237 15.4461 8.36294 15.4308C8.83481 15.6933 9.37498 15.8508 9.94959 15.8694C9.00922 15.24 8.39116 14.1693 8.39116 12.9535C8.39116 12.3117 8.56388 11.7094 8.86529 11.1924C10.5931 13.3113 13.1743 14.7061 16.0857 14.8517C16.0258 14.596 15.9948 14.3279 15.9948 14.0536C15.9948 12.1198 17.5628 10.5512 19.4977 10.5512C20.5052 10.5512 21.4151 10.9768 22.0541 11.6569C22.8522 11.5006 23.6018 11.2082 24.2786 10.8069C24.0161 11.6253 23.4612 12.3117 22.7376 12.7446C23.4471 12.66 24.1222 12.4714 24.7499 12.1932C24.2814 12.897 23.687 13.514 23.0023 14.0079Z" fill="#3AADE1"/>
</svg>
