<svg width="28" height="28" viewBox="0 0 28 28" fill="none" xmlns="http://www.w3.org/2000/svg">
<path fill-rule="evenodd" clip-rule="evenodd" d="M14 28C21.732 28 28 21.732 28 14C28 6.26801 21.732 0 14 0C6.26801 0 0 6.26801 0 14C0 21.732 6.26801 28 14 28Z" fill="#3AADE1"/>
<path fill-rule="evenodd" clip-rule="evenodd" d="M14.0335 21.5697C12.6986 21.5697 11.4445 21.2285 10.3535 20.6298L6.13867 21.9691L7.51265 17.9161C6.81963 16.7777 6.4204 15.4426 6.4204 14.0156C6.4204 9.84348 9.82881 6.46143 14.0336 6.46143C18.2379 6.46143 21.6464 9.84348 21.6464 14.0156C21.6464 18.1877 18.2381 21.5697 14.0335 21.5697ZM14.0335 7.66448C10.5039 7.66448 7.63292 10.5136 7.63292 14.0156C7.63292 15.4052 8.08592 16.6922 8.852 17.7393L8.05249 20.0979L10.512 19.3161C11.5228 19.9797 12.7334 20.3667 14.0335 20.3667C17.5625 20.3667 20.434 17.5177 20.434 14.0157C20.434 10.5138 17.5625 7.66448 14.0335 7.66448ZM17.8776 15.7554C17.8308 15.6783 17.7064 15.6318 17.5201 15.5393C17.3333 15.4468 16.4156 14.9986 16.2449 14.9371C16.0736 14.8754 15.949 14.8442 15.8248 15.0296C15.7005 15.215 15.3428 15.6318 15.2338 15.7554C15.1249 15.8791 15.0161 15.8946 14.8295 15.8019C14.6431 15.7094 14.0417 15.5138 13.3287 14.883C12.7741 14.3922 12.3995 13.7864 12.2907 13.6008C12.1818 13.4156 12.2792 13.3155 12.3726 13.2233C12.4565 13.1402 12.5592 13.0071 12.6526 12.899C12.746 12.7908 12.777 12.7138 12.839 12.5901C12.9014 12.4665 12.8702 12.3585 12.8235 12.2656C12.7768 12.1731 12.4034 11.2619 12.248 10.8911C12.0926 10.5207 11.9373 10.5823 11.8283 10.5823C11.7194 10.5823 11.595 10.5668 11.4706 10.5668C11.3462 10.5668 11.1439 10.6132 10.9728 10.7984C10.8018 10.9838 10.3199 11.4318 10.3199 12.3428C10.3199 13.254 10.9883 14.1343 11.0818 14.2577C11.1751 14.381 12.3724 16.3116 14.2694 17.053C16.167 17.7943 16.167 17.547 16.5092 17.5162C16.8509 17.4853 17.6128 17.0683 17.7688 16.636C17.924 16.2034 17.924 15.8326 17.8776 15.7554Z" fill="white"/>
</svg>
